<?xml version="1.0" encoding="UTF-8"?>
<svg version="1.1" xmlns="http://www.w3.org/2000/svg" width="512" height="512">
<path d="M0 0 C0.96988861 0.00182281 1.93977722 0.00364563 2.9390564 0.00552368 C17.29056055 0.05091691 31.25442918 0.5562653 45.375 3.3125 C46.72053955 3.55395752 46.72053955 3.55395752 48.09326172 3.80029297 C91.69438156 11.68987506 132.84026903 31.3774291 166.375 60.3125 C167.13167969 60.95832031 167.88835937 61.60414062 168.66796875 62.26953125 C180.8161432 72.91190183 192.64131337 84.40083733 202.375 97.3125 C202.78878906 97.84987793 203.20257813 98.38725586 203.62890625 98.94091797 C211.31576589 108.9388779 218.06113145 119.40061847 224.375 130.3125 C224.76929199 130.98974121 225.16358398 131.66698242 225.56982422 132.36474609 C240.50813147 158.33637879 249.72342533 187.78499709 254.375 217.3125 C254.55232666 218.41956299 254.72965332 219.52662598 254.91235352 220.66723633 C256.59514215 232.40032467 256.73238493 244.03653844 256.6875 255.875 C256.68534485 256.89540375 256.6831897 257.9158075 256.68096924 258.96713257 C256.63133352 273.59460524 256.38419712 287.94513838 253.375 302.3125 C253.07698486 303.77478027 253.07698486 303.77478027 252.77294922 305.26660156 C242.65232806 353.6484774 220.7358123 397.63678269 186.375 433.3125 C185.74287598 433.97185547 185.11075195 434.63121094 184.45947266 435.31054688 C175.31502521 444.79880305 166.01765991 453.5387044 155.375 461.3125 C154.22394983 462.17056152 153.07290823 463.02863451 151.921875 463.88671875 C143.73224019 469.92427396 135.22961724 475.30707302 126.375 480.3125 C125.66778809 480.7146875 124.96057617 481.116875 124.23193359 481.53125 C101.09654164 494.5566741 75.92537591 503.30551461 49.9375 508.625 C49.21860596 508.77235596 48.49971191 508.91971191 47.7590332 509.0715332 C32.2805416 512.01349792 16.96897347 512.68487899 1.25 512.625 C0.25676727 512.62317719 -0.73646545 512.62135437 -1.75979614 512.61947632 C-16.23317811 512.57474558 -30.39676256 512.20173753 -44.625 509.3125 C-45.52541016 509.13557617 -46.42582031 508.95865234 -47.35351562 508.77636719 C-53.82795153 507.4774419 -60.23374463 505.97111797 -66.625 504.3125 C-67.45563965 504.09754883 -68.2862793 503.88259766 -69.14208984 503.66113281 C-109.61050039 492.92838092 -146.54181601 471.28690378 -176.625 442.3125 C-177.28435547 441.68037598 -177.94371094 441.04825195 -178.62304688 440.39697266 C-188.11382 431.25009947 -196.83820776 421.94804306 -204.625 411.3125 C-205.44744754 410.21969886 -206.27036382 409.12725034 -207.09375 408.03515625 C-229.29450597 378.1912292 -244.13797571 343.68546844 -251.625 307.3125 C-251.83527832 306.31138184 -252.04555664 305.31026367 -252.26220703 304.27880859 C-258.61424225 272.55886711 -258.31108653 236.93875059 -251.625 205.3125 C-251.40537598 204.27061523 -251.18575195 203.22873047 -250.95947266 202.15527344 C-241.04735766 156.7124702 -219.22440838 113.4525054 -186.46972656 80.18798828 C-184.52498022 78.21081235 -182.60253414 76.21330796 -180.6796875 74.21484375 C-172.51124101 65.80260723 -164.07869229 58.24179512 -154.625 51.3125 C-154.05571777 50.88775391 -153.48643555 50.46300781 -152.89990234 50.02539062 C-144.15908179 43.50981985 -135.11413672 37.67661453 -125.625 32.3125 C-124.91778809 31.9103125 -124.21057617 31.508125 -123.48193359 31.09375 C-97.33439144 16.37245949 -68.31333558 6.67328667 -38.625 2.3125 C-37.42037109 2.13517334 -36.21574219 1.95784668 -34.97460938 1.77514648 C-23.31732646 0.176175 -11.75313902 -0.0459053 0 0 Z " fill="#FECD00" transform="translate(255.625,-0.3125)"/>
<path d="M0 0 C2.14591034 -0.00965322 4.29083865 -0.04074041 6.43652344 -0.07226562 C29.5334592 -0.25059536 48.7767984 6.42479771 65.73339844 22.42773438 C78.51259366 35.64444841 85.77593524 52.70514363 86.35839844 71.05273438 C86.0584843 85.56108067 80.92921529 98.9907668 74.35839844 111.74023438 C74.03178223 112.37469482 73.70516602 113.00915527 73.36865234 113.6628418 C71.58382809 116.95300555 69.73633936 119.71404117 67.13183594 122.41210938 C61.87002442 127.61588491 61.87002442 127.61588491 60.08203125 134.54199219 C60.91458443 139.60288228 62.57207877 144.32204198 64.33447266 149.12231445 C79.29096211 193.64789648 46.91765532 255.55910021 27.85839844 293.99023438 C27.52845886 294.65842194 27.19851929 295.3266095 26.85858154 296.01504517 C15.65248334 318.63364947 15.65248334 318.63364947 11.04589844 323.24023438 C2.46589844 323.24023438 -6.11410156 323.24023438 -14.95410156 323.24023438 C-14.95410156 297.17023438 -14.95410156 271.10023438 -14.95410156 244.24023438 C-25.03972656 245.63242187 -25.03972656 245.63242187 -35.32910156 247.05273438 C-42.3609253 248.01053886 -49.39385273 248.9596924 -56.42779541 249.90179443 C-58.54136048 250.18494097 -60.65473668 250.4694968 -62.76806641 250.75439453 C-78.98259834 252.9045991 -95.2782583 254.13706878 -111.57910156 255.42773438 C-112.7226712 255.51863342 -113.86624084 255.60953247 -115.04446411 255.70318604 C-118.33955531 255.96321183 -121.63500074 256.21804166 -124.93066406 256.47070312 C-125.92236099 256.54865616 -126.91405792 256.62660919 -127.93580627 256.70692444 C-128.87335251 256.77745529 -129.81089874 256.84798615 -130.77685547 256.9206543 C-131.99159042 257.01367073 -131.99159042 257.01367073 -133.23086548 257.10856628 C-136.80137598 257.28119998 -140.37942009 257.24023438 -143.95410156 257.24023438 C-143.95410156 278.36023438 -143.95410156 299.48023438 -143.95410156 321.24023438 C-155.83410156 321.24023438 -167.71410156 321.24023438 -179.95410156 321.24023438 C-186.11376414 307.03101275 -186.11376414 307.03101275 -189.06347656 300.22070312 C-191.31476652 295.0230123 -193.56722746 289.82583379 -195.82214355 284.62971497 C-196.46570772 283.14582497 -197.10868656 281.661681 -197.75109863 280.17729187 C-199.40050825 276.36618959 -201.05696233 272.55846778 -202.72753906 268.7565918 C-206.01885207 261.23603573 -209.20160837 253.70039418 -212.12384033 246.02761841 C-213.5280584 242.35115606 -214.97328115 238.6913765 -216.42053223 235.03167725 C-217.10024226 233.27813454 -217.75969245 231.51657964 -218.39685059 229.74713135 C-221.97154591 219.15159036 -221.97154591 219.15159036 -229.81713867 211.72167969 C-233.14646625 210.16288015 -236.5572074 209.05808507 -240.06085205 207.96665955 C-245.3575774 205.93434706 -249.69294066 201.87861022 -253.95410156 198.24023438 C-254.60636719 197.70011719 -255.25863281 197.16 -255.93066406 196.60351562 C-264.87721052 188.49443127 -271.07758917 176.50492332 -274.95410156 165.24023438 C-275.2725 164.35722656 -275.59089844 163.47421875 -275.91894531 162.56445312 C-280.06565397 149.05420879 -279.27560855 133.85765629 -274.82910156 120.56445312 C-272.66809518 112.35455833 -274.45062386 103.672098 -275.39160156 95.36523438 C-275.66142472 92.93037087 -275.93096102 90.49547556 -276.20019531 88.06054688 C-276.329021 86.8973291 -276.45784668 85.73411133 -276.59057617 84.53564453 C-276.71053955 83.44815918 -276.83050293 82.36067383 -276.95410156 81.24023438 C-277.05924072 80.29067871 -277.16437988 79.34112305 -277.27270508 78.36279297 C-277.95246738 71.96084351 -278.02892171 65.67476744 -277.95410156 59.24023438 C-272.17984678 62.28543429 -266.53001064 65.44795759 -261.02441406 68.95898438 C-260.04472656 69.5803125 -259.06503906 70.20164062 -258.05566406 70.84179688 C-256.04042753 72.12710521 -254.0327758 73.42437045 -252.03222656 74.73242188 C-251.06027344 75.3434375 -250.08832031 75.95445312 -249.08691406 76.58398438 C-247.78584717 77.42219727 -247.78584717 77.42219727 -246.45849609 78.27734375 C-243.95673669 79.52788757 -243.95673669 79.52788757 -241.31469727 78.48242188 C-240.53570068 78.0725 -239.7567041 77.66257812 -238.95410156 77.24023438 C-237.99632812 76.83804688 -237.03855469 76.43585938 -236.05175781 76.02148438 C-234.03053039 75.16825066 -232.00969576 74.31408586 -229.98925781 73.45898438 C-210.79319941 65.75091459 -189.65992248 68.45768913 -170.95410156 76.24023438 C-170.07496094 76.80871094 -169.19582031 77.3771875 -168.29003906 77.96289062 C-166.13089086 79.43749727 -166.13089086 79.43749727 -164.16333008 79.0246582 C-161.28785709 78.00367304 -158.87905738 76.55115529 -156.27050781 74.96679688 C-154.63178711 73.97679687 -154.63178711 73.97679687 -152.95996094 72.96679688 C-151.81209597 72.26640469 -150.6643102 71.56588271 -149.51660156 70.86523438 C-148.37300964 70.17205021 -147.2291321 69.47933702 -146.08496094 68.78710938 C-143.97294922 67.5077057 -141.86221331 66.2261919 -139.75317383 64.94189453 C-138.82947998 64.38034668 -137.90578613 63.81879883 -136.95410156 63.24023438 C-136.05038818 62.67224121 -135.1466748 62.10424805 -134.21557617 61.51904297 C-131.95410156 60.24023438 -131.95410156 60.24023438 -129.95410156 60.24023438 C-129.87103235 66.24458066 -130.12543363 72.03470984 -130.82910156 77.99414062 C-130.91788574 78.78046371 -131.00666992 79.5667868 -131.09814453 80.37693787 C-131.37876947 82.85276553 -131.66630488 85.32773123 -131.95410156 87.80273438 C-132.14727046 89.49604127 -132.33998284 91.18940032 -132.53222656 92.8828125 C-133.00091772 97.00257384 -133.47580188 101.12157798 -133.95410156 105.24023438 C-132.91205566 104.8617334 -131.87000977 104.48323242 -130.79638672 104.09326172 C-100.7341773 93.27200811 -68.58337671 86.91994169 -36.64160156 86.86523438 C-35.9690332 86.86305908 -35.29646484 86.86088379 -34.60351562 86.85864258 C-21.39438377 86.8635156 -8.1570057 87.93668032 4.60839844 91.49023438 C5.79163696 91.81229858 5.79163696 91.81229858 6.9987793 92.14086914 C17.69090281 95.14880349 27.8465842 98.96212829 37.09277344 105.23632812 C37.73730469 105.56761719 38.38183594 105.89890625 39.04589844 106.24023438 C44.75811769 104.33616129 47.43808253 96.45311678 50.04589844 91.24023438 C54.63772226 81.47147899 56.08786066 69.90801087 53.28027344 59.36523438 C52.34927668 57.17813087 51.32431604 55.24104549 50.04589844 53.24023438 C49.38589844 52.16773438 48.72589844 51.09523437 48.04589844 49.99023438 C39.89333351 38.7804576 30.34240158 33.98964025 16.82714844 31.69335938 C-10.69136923 28.39568577 -38.89024612 35.16838443 -65.93185425 39.75357056 C-75.33714208 41.34746192 -84.73762829 42.85890391 -94.20410156 44.05273438 C-95.51254028 44.22023193 -95.51254028 44.22023193 -96.84741211 44.39111328 C-110.35212801 46.00626957 -123.92624476 46.47704738 -137.51660156 46.49023438 C-138.25056152 46.49124146 -138.98452148 46.49224854 -139.74072266 46.49328613 C-194.10524046 46.44328631 -194.10524046 46.44328631 -208.69238281 33.72460938 C-212.65268029 29.12843315 -213.35681203 25.7440568 -213.30566406 19.85351562 C-212.76001129 15.79749665 -210.93216426 12.99886087 -207.95410156 10.24023438 C-202.64191791 6.98048531 -196.71047044 7.43960074 -190.76171875 8.70751953 C-187.49163188 9.50993304 -184.23857852 10.35321567 -181.00292969 11.28540039 C-166.83838446 15.21407358 -152.31910464 15.56981512 -137.71606445 15.50097656 C-135.02239416 15.49025743 -132.32939248 15.50094404 -129.63574219 15.51367188 C-113.41581071 15.52884885 -97.74933556 13.73116442 -81.80633545 10.86727905 C-78.07414536 10.19789473 -74.3382815 9.54960715 -70.60253906 8.90039062 C-69.82532501 8.76506424 -69.04811096 8.62973785 -68.24734497 8.49031067 C-58.95549899 6.88075238 -49.64374561 5.39856319 -40.32910156 3.92773438 C-39.11401917 3.73455627 -39.11401917 3.73455627 -37.87438965 3.53747559 C-32.90431045 2.74803105 -27.93168764 1.98095839 -22.95410156 1.24023438 C-21.71152588 1.05243408 -21.71152588 1.05243408 -20.44384766 0.86083984 C-13.66926922 -0.03337252 -6.82242712 0.01846394 0 0 Z " fill="#555A65" transform="translate(347.9541015625,107.759765625)"/>
<path d="M0 0 C5.77425478 3.04519992 11.42409092 6.20772321 16.9296875 9.71875 C17.909375 10.34007812 18.8890625 10.96140625 19.8984375 11.6015625 C21.91367403 12.88687084 23.92132576 14.18413607 25.921875 15.4921875 C26.89382812 16.10320312 27.86578125 16.71421875 28.8671875 17.34375 C29.73456543 17.90255859 30.60194336 18.46136719 31.49560547 19.03710938 C33.99736487 20.28765319 33.99736487 20.28765319 36.6394043 19.2421875 C37.80789917 18.62730469 37.80789917 18.62730469 39 18 C39.95777344 17.5978125 40.91554687 17.195625 41.90234375 16.78125 C43.92357117 15.92801629 45.9444058 15.07385148 47.96484375 14.21875 C67.16090216 6.51068022 88.29417908 9.21745475 107 17 C107.87914062 17.56847656 108.75828125 18.13695312 109.6640625 18.72265625 C111.8232107 20.1972629 111.8232107 20.1972629 113.79077148 19.78442383 C116.66624447 18.76343867 119.07504418 17.31092092 121.68359375 15.7265625 C122.77607422 15.0665625 123.86855469 14.4065625 124.99414062 13.7265625 C126.14200559 13.02617032 127.28979137 12.32564833 128.4375 11.625 C129.58109192 10.93181583 130.72496946 10.23910264 131.86914062 9.546875 C133.98115234 8.26747132 136.09188826 6.98595752 138.20092773 5.70166016 C139.12462158 5.1401123 140.04831543 4.57856445 141 4 C141.90371338 3.43200684 142.80742676 2.86401367 143.73852539 2.27880859 C146 1 146 1 148 1 C148.19099029 8.72265098 147.42551764 16.20607086 146.5625 23.875 C143.28069252 45.41363142 143.28069252 45.41363142 146.2109375 66.578125 C151.9647962 84.23848339 147.3211269 103.98643588 139.234375 119.9765625 C136.20676605 125.63145733 132.44653306 130.3896081 128 135 C127.24074219 135.78761719 126.48148437 136.57523438 125.69921875 137.38671875 C116.53281493 146.22307202 105.21023088 152.44725288 93 156 C91.87658203 156.33644531 91.87658203 156.33644531 90.73046875 156.6796875 C71.30311198 161.51170469 51.75307849 156.78752689 34.74658203 147.05566406 C15.87825639 135.65132522 5.83143508 117.36564744 0.390625 96.68359375 C-1.34336444 84.7710863 -0.68675013 72.71976341 3.125 61.32421875 C5.28600639 53.11432395 3.5034777 44.43186363 2.5625 36.125 C2.29267684 33.6901365 2.02314054 31.25524119 1.75390625 28.8203125 C1.62508057 27.65709473 1.49625488 26.49387695 1.36352539 25.29541016 C1.24356201 24.2079248 1.12359863 23.12043945 1 22 C0.89486084 21.05044434 0.78972168 20.10088867 0.68139648 19.12255859 C0.00163419 12.72060914 -0.07482015 6.43453306 0 0 Z " fill="#636977" transform="translate(70,167)"/>
<path d="M0 0 C3.75212276 2.01502889 5.63644095 3.45466142 8 7 C8.33834017 11.19541805 8.43391951 13.91520123 6.875 17.8125 C3.79968119 21.40037194 0.63542281 22.76150084 -4 23.4375 C-7.85762893 22.87492911 -9.97048355 21.40984263 -13 19 C-15.68121076 14.97818385 -15.81344335 11.72763609 -15 7 C-11.49366947 0.70424667 -6.97815553 -0.95982065 0 0 Z " fill="#FAFAFB" transform="translate(114,234)"/>
<path d="M0 0 C3.64207936 1.61870194 6.16648143 3.42946383 8 7 C8.54459386 11.82354558 8.4898853 14.02022939 6.3125 18.375 C3.07728202 22.0474096 0.79057368 22.81348191 -4 23.3125 C-7.54820749 22.94289505 -9.2303934 22.24562697 -12 20 C-14.61525329 15.94184834 -15.70124748 12.80855413 -15 8 C-11.23930189 1.25667924 -7.72166435 -0.98220779 0 0 Z " fill="#FBFBFB" transform="translate(181,234)"/>
</svg>
