<?xml version="1.0" encoding="UTF-8"?>
<svg version="1.1" xmlns="http://www.w3.org/2000/svg" width="512" height="512">
<path d="M0 0 C0.96988861 0.00182281 1.93977722 0.00364563 2.9390564 0.00552368 C17.29056055 0.05091691 31.25442918 0.5562653 45.375 3.3125 C46.72053955 3.55395752 46.72053955 3.55395752 48.09326172 3.80029297 C91.69438156 11.68987506 132.84026903 31.3774291 166.375 60.3125 C167.13167969 60.95832031 167.88835937 61.60414062 168.66796875 62.26953125 C180.8161432 72.91190183 192.64131337 84.40083733 202.375 97.3125 C202.78878906 97.84987793 203.20257813 98.38725586 203.62890625 98.94091797 C211.31576589 108.9388779 218.06113145 119.40061847 224.375 130.3125 C224.76929199 130.98974121 225.16358398 131.66698242 225.56982422 132.36474609 C240.50813147 158.33637879 249.72342533 187.78499709 254.375 217.3125 C254.55232666 218.41956299 254.72965332 219.52662598 254.91235352 220.66723633 C256.59514215 232.40032467 256.73238493 244.03653844 256.6875 255.875 C256.68534485 256.89540375 256.6831897 257.9158075 256.68096924 258.96713257 C256.63133352 273.59460524 256.38419712 287.94513838 253.375 302.3125 C253.07698486 303.77478027 253.07698486 303.77478027 252.77294922 305.26660156 C242.65232806 353.6484774 220.7358123 397.63678269 186.375 433.3125 C185.74287598 433.97185547 185.11075195 434.63121094 184.45947266 435.31054688 C175.31502521 444.79880305 166.01765991 453.5387044 155.375 461.3125 C154.22394983 462.17056152 153.07290823 463.02863451 151.921875 463.88671875 C143.73224019 469.92427396 135.22961724 475.30707302 126.375 480.3125 C125.66778809 480.7146875 124.96057617 481.116875 124.23193359 481.53125 C101.09654164 494.5566741 75.92537591 503.30551461 49.9375 508.625 C49.21860596 508.77235596 48.49971191 508.91971191 47.7590332 509.0715332 C32.2805416 512.01349792 16.96897347 512.68487899 1.25 512.625 C0.25676727 512.62317719 -0.73646545 512.62135437 -1.75979614 512.61947632 C-16.23317811 512.57474558 -30.39676256 512.20173753 -44.625 509.3125 C-45.52541016 509.13557617 -46.42582031 508.95865234 -47.35351562 508.77636719 C-53.82795153 507.4774419 -60.23374463 505.97111797 -66.625 504.3125 C-67.45563965 504.09754883 -68.2862793 503.88259766 -69.14208984 503.66113281 C-109.61050039 492.92838092 -146.54181601 471.28690378 -176.625 442.3125 C-177.28435547 441.68037598 -177.94371094 441.04825195 -178.62304688 440.39697266 C-188.11382 431.25009947 -196.83820776 421.94804306 -204.625 411.3125 C-205.44744754 410.21969886 -206.27036382 409.12725034 -207.09375 408.03515625 C-229.29450597 378.1912292 -244.13797571 343.68546844 -251.625 307.3125 C-251.83527832 306.31138184 -252.04555664 305.31026367 -252.26220703 304.27880859 C-258.61424225 272.55886711 -258.31108653 236.93875059 -251.625 205.3125 C-251.40537598 204.27061523 -251.18575195 203.22873047 -250.95947266 202.15527344 C-241.04735766 156.7124702 -219.22440838 113.4525054 -186.46972656 80.18798828 C-184.52498022 78.21081235 -182.60253414 76.21330796 -180.6796875 74.21484375 C-172.51124101 65.80260723 -164.07869229 58.24179512 -154.625 51.3125 C-154.05571777 50.88775391 -153.48643555 50.46300781 -152.89990234 50.02539062 C-144.15908179 43.50981985 -135.11413672 37.67661453 -125.625 32.3125 C-124.91778809 31.9103125 -124.21057617 31.508125 -123.48193359 31.09375 C-97.33439144 16.37245949 -68.31333558 6.67328667 -38.625 2.3125 C-37.42037109 2.13517334 -36.21574219 1.95784668 -34.97460938 1.77514648 C-23.31732646 0.176175 -11.75313902 -0.0459053 0 0 Z " fill="#279CFE" transform="translate(255.625,-0.3125)"/>
<path d="M0 0 C2.06462488 -0.00966924 4.12823553 -0.040782 6.19262695 -0.07226562 C27.41563721 -0.2410861 47.63383175 5.65268654 63.50317383 20.32617188 C76.68425526 33.64314074 85.01085323 51.43926035 85.64770508 70.24023438 C85.39936288 88.44371714 78.16817791 111.63597254 64.86645508 124.73242188 C64.09301758 125.4775 63.31958008 126.22257812 62.52270508 126.99023438 C60.39820286 129.47368981 59.32190985 131.04803293 59.53295898 134.36767578 C60.31486286 138.55406606 61.55335 142.5308757 62.92504883 146.55664062 C76.22342591 185.88710232 52.83988247 239.53002774 36.68530273 274.45507812 C35.49365776 277.03268258 34.32412729 279.61912737 33.15942383 282.20898438 C26.75009211 296.27977789 19.69069689 310.84957862 10.39770508 323.24023438 C1.81770508 323.24023438 -6.76229492 323.24023438 -15.60229492 323.24023438 C-15.60229492 297.17023438 -15.60229492 271.10023438 -15.60229492 244.24023438 C-23.27479492 245.29210937 -30.94729492 246.34398437 -38.85229492 247.42773438 C-58.21690889 250.02722761 -77.58738246 252.28339205 -97.03979492 254.11523438 C-98.12981812 254.21814789 -99.21984131 254.3210614 -100.34289551 254.42709351 C-130.3523833 257.24023438 -130.3523833 257.24023438 -144.60229492 257.24023438 C-144.60229492 278.36023438 -144.60229492 299.48023438 -144.60229492 321.24023438 C-156.48229492 321.24023438 -168.36229492 321.24023438 -180.60229492 321.24023438 C-197.8004902 282.18122199 -197.8004902 282.18122199 -203.34643555 269.26733398 C-204.26846561 267.12087538 -205.19687925 264.97714788 -206.1315918 262.83618164 C-208.69485253 256.91541654 -211.1013184 250.97522006 -213.35287476 244.93006897 C-214.6598127 241.44319155 -216.01114552 237.97423904 -217.36590576 234.50570679 C-218.01363086 232.81284811 -218.64089189 231.1119889 -219.24542236 229.40322876 C-222.72251695 219.00038747 -222.72251695 219.00038747 -230.45166016 211.74462891 C-233.78499017 210.18918868 -237.20246424 209.07707289 -240.70501709 207.97370911 C-246.00049383 205.92651374 -250.33684143 201.88227543 -254.60229492 198.24023438 C-255.25456055 197.70011719 -255.90682617 197.16 -256.57885742 196.60351562 C-269.62727181 184.77652815 -277.9797751 165.23760031 -278.88745117 147.90820312 C-279.13728813 139.43547146 -278.45937337 131.68097612 -276.35620117 123.45117188 C-274.43950437 115.28783109 -274.74878862 108.15885492 -275.59838867 99.86523438 C-275.71078384 98.70016357 -275.82317902 97.53509277 -275.9389801 96.3347168 C-276.29771875 92.63570073 -276.66857321 88.93801642 -277.03979492 85.24023438 C-277.28604006 82.72338567 -277.5314914 80.20645917 -277.77612305 77.68945312 C-278.37565926 71.53878302 -278.98513136 65.38915939 -279.60229492 59.24023438 C-276.54503069 60.44312264 -273.67975588 61.66601272 -270.85229492 63.34179688 C-269.82507324 63.94846191 -269.82507324 63.94846191 -268.77709961 64.56738281 C-268.05941406 64.99567383 -267.34172852 65.42396484 -266.60229492 65.86523438 C-265.85625 66.30383789 -265.11020508 66.74244141 -264.34155273 67.19433594 C-260.76723902 69.3059446 -257.23511159 71.45476188 -253.77416992 73.74804688 C-253.19280273 74.12751465 -252.61143555 74.50698242 -252.01245117 74.89794922 C-250.44418186 75.92977818 -248.88993115 76.98282326 -247.33666992 78.03710938 C-244.70628366 79.52907932 -244.70628366 79.52907932 -242.19604492 78.63085938 C-241.34010742 78.17195313 -240.48416992 77.71304688 -239.60229492 77.24023438 C-237.18762369 76.23503187 -234.77110286 75.23534477 -232.35229492 74.24023438 C-231.73483398 73.97984375 -231.11737305 73.71945313 -230.48120117 73.45117188 C-214.31635491 66.85191505 -194.84474404 66.96689639 -178.60229492 73.24023438 C-175.36023068 74.78214688 -172.20767574 76.38543178 -169.09057617 78.16601562 C-166.14102548 79.43936954 -165.56323025 79.27902645 -162.60229492 78.24023438 C-160.67894495 77.20072835 -158.78732194 76.1017437 -156.91870117 74.96679688 C-155.27998047 73.97679687 -155.27998047 73.97679687 -153.6081543 72.96679688 C-152.46028933 72.26640469 -151.31250356 71.56588271 -150.16479492 70.86523438 C-149.021203 70.17205021 -147.87732546 69.47933702 -146.7331543 68.78710938 C-144.62114258 67.5077057 -142.51040667 66.2261919 -140.40136719 64.94189453 C-139.47767334 64.38034668 -138.55397949 63.81879883 -137.60229492 63.24023438 C-136.69858154 62.67224121 -135.79486816 62.10424805 -134.86376953 61.51904297 C-132.60229492 60.24023438 -132.60229492 60.24023438 -130.60229492 60.24023438 C-130.40782242 67.85002775 -131.06914446 75.32505972 -131.82910156 82.88916016 C-132.04069299 84.9991901 -132.24483362 87.10984678 -132.44799805 89.22070312 C-133.54846384 100.43408291 -133.54846384 100.43408291 -134.60229492 105.24023438 C-133.62776367 104.88832031 -132.65323242 104.53640625 -131.64916992 104.17382812 C-109.2279566 96.28307745 -86.17134897 91.18244806 -62.60229492 88.24023438 C-61.79735596 88.13710937 -60.99241699 88.03398437 -60.16308594 87.92773438 C-28.77328526 84.31711748 4.03134798 87.40023949 32.11254883 102.50585938 C34.84274052 103.94724476 37.50873006 105.16577687 40.39770508 106.24023438 C50.28927141 91.75920931 55.58704989 78.17156596 53.00708008 60.57617188 C50.31750042 51.09367948 43.349119 42.93147991 35.17895508 37.67382812 C18.51618627 29.08501331 -1.05190714 30.22925527 -19.10229492 32.47460938 C-20.17663788 32.60605347 -21.25098083 32.73749756 -22.35787964 32.8729248 C-33.69974939 34.3067387 -44.95506827 36.21120517 -56.22076416 38.14285278 C-101.70458052 45.89159262 -147.30440323 51.22126927 -192.72729492 40.30273438 C-193.72994385 40.06216309 -194.73259277 39.8215918 -195.765625 39.57373047 C-202.40499434 37.85619041 -208.09697813 35.69403891 -212.60229492 30.24023438 C-214.23284896 25.34857227 -214.74141528 19.99353426 -212.73120117 15.13476562 C-209.86413804 10.72606854 -206.75479579 8.61423461 -201.60229492 7.24023438 C-194.18963765 7.37297926 -186.9878756 9.50040192 -179.8581543 11.3359375 C-167.36224028 14.44823321 -155.10650912 15.59251222 -142.27612305 15.5559082 C-140.02755486 15.55280377 -137.78038395 15.57611356 -135.53198242 15.6015625 C-109.89147177 15.72167312 -84.49787126 11.14571688 -59.27679443 6.99334717 C-53.13974273 5.98421551 -47.00070778 4.98727038 -40.8613472 3.99229813 C-38.7527807 3.64917568 -36.64495588 3.30177276 -34.53720093 2.95370483 C-22.95283453 1.0641013 -11.73684779 0.03304991 0 0 Z " fill="#F89D00" transform="translate(348.602294921875,107.759765625)"/>
<path d="M0 0 C3.05726423 1.20288826 5.92253904 2.42577835 8.75 4.1015625 C9.43481445 4.50600586 10.11962891 4.91044922 10.82519531 5.32714844 C11.54288086 5.75543945 12.26056641 6.18373047 13 6.625 C13.74604492 7.06360352 14.49208984 7.50220703 15.26074219 7.95410156 C18.8350559 10.06571022 22.36718334 12.2145275 25.828125 14.5078125 C26.40949219 14.88728027 26.99085937 15.26674805 27.58984375 15.65771484 C29.15811306 16.6895438 30.71236378 17.74258888 32.265625 18.796875 C34.89601126 20.28884495 34.89601126 20.28884495 37.40625 19.390625 C38.2621875 18.93171875 39.118125 18.4728125 40 18 C42.41467123 16.9947975 44.83119206 15.9951104 47.25 15 C48.17619141 14.60941406 48.17619141 14.60941406 49.12109375 14.2109375 C65.28594001 7.61168068 84.75755089 7.72666201 101 14 C104.24206424 15.54191251 107.39461918 17.1451974 110.51171875 18.92578125 C113.46126945 20.19913516 114.03906467 20.03879207 117 19 C118.92334997 17.96049398 120.81497298 16.86150932 122.68359375 15.7265625 C123.77607422 15.0665625 124.86855469 14.4065625 125.99414062 13.7265625 C127.14200559 13.02617032 128.28979137 12.32564833 129.4375 11.625 C130.58109192 10.93181583 131.72496946 10.23910264 132.86914062 9.546875 C134.98115234 8.26747132 137.09188826 6.98595752 139.20092773 5.70166016 C140.12462158 5.1401123 141.04831543 4.57856445 142 4 C142.90371338 3.43200684 143.80742676 2.86401367 144.73852539 2.27880859 C147 1 147 1 149 1 C149.08780277 7.26496287 148.78518593 13.33935897 148.125 19.56640625 C148.03621582 20.44473618 147.94743164 21.3230661 147.85595703 22.22801208 C147.57488616 25.00662798 147.28811015 27.78460578 147 30.5625 C146.71206911 33.34398007 146.42557311 36.12556394 146.14404297 38.90769958 C145.96976002 40.62997928 145.79192591 42.35190483 145.60986328 44.07337952 C144.90264392 51.06050585 144.31856353 57.7595987 146.4375 64.5625 C151.87492213 83.31134706 148.9683803 102.84218323 140 120 C137.88342612 123.53259162 135.56738347 126.78257689 133 130 C132.39414063 130.76957031 131.78828125 131.53914062 131.1640625 132.33203125 C119.01044102 146.89157372 100.84086094 155.92547008 82.02954102 157.72851562 C61.59373023 159.20349295 42.12349222 153.3602862 26.40625 140.1796875 C12.64123391 127.71072812 2.08249593 110.01003553 0.87719727 91.0703125 C0.52257733 81.79198902 0.94014025 73.23423379 3.24609375 64.2109375 C5.16279055 56.04759671 4.8535063 48.91862055 4.00390625 40.625 C3.89151108 39.4599292 3.77911591 38.2948584 3.66331482 37.09448242 C3.30457618 33.39546635 2.93372171 29.69778204 2.5625 26 C2.31625486 23.4831513 2.07080352 20.96622479 1.82617188 18.44921875 C1.22663566 12.29854865 0.61716356 6.14892501 0 0 Z " fill="#FEB538" transform="translate(69,167)"/>
<path d="M0 0 C2.91457862 1.85001093 5.4307246 3.86144919 7 7 C7.59968751 12.27725011 6.27164725 14.88707202 3 19 C-1.00254616 21.66836411 -4.29313299 21.8340238 -9 21 C-11.75569447 18.81840855 -13.43588747 17.12822506 -15 14 C-15.47210258 9.27897422 -15.73364092 6.34044655 -12.6875 2.5625 C-8.42036457 -1.50616402 -5.58092772 -1.32428793 0 0 Z " fill="#FEFCF7" transform="translate(182,235)"/>
<path d="M0 0 C3.6578218 2.03993908 5.66946174 3.50419262 8 7 C8.43145362 12.35002483 8.45651329 15.64735364 5 20 C0.98141405 22.6790573 -2.27641721 22.69610694 -7 22 C-9.87029869 20.20606332 -11.49131638 19.01736724 -13 16 C-13.67244903 11.75134477 -14.14474918 7.68734705 -11.6484375 4.0078125 C-8.00426023 0.65260083 -5.05165817 -1.07482089 0 0 Z " fill="#FEFCF8" transform="translate(113,234)"/>
</svg>
